<?xml version="1.0" encoding="UTF-8"?><svg id="Layer_1" xmlns="http://www.w3.org/2000/svg" xmlns:xlink="http://www.w3.org/1999/xlink" viewBox="0 0 1000 1000"><defs><style>.cls-1{fill:url(#linear-gradient-2);}.cls-2{fill:none;stroke:#4e3721;stroke-miterlimit:10;stroke-width:1.85px;}.cls-3{fill:#d0edf4;}.cls-4{fill:#7a5734;}.cls-5{fill:url(#linear-gradient);}.cls-6{fill:#95d9f2;}</style><linearGradient id="linear-gradient" x1="575.54" y1="405.38" x2="762.99" y2="-22.95" gradientTransform="translate(0 1002) scale(1 -1)" gradientUnits="userSpaceOnUse"><stop offset="0" stop-color="#fec881"/><stop offset="1" stop-color="#f68942"/></linearGradient><linearGradient id="linear-gradient-2" x1="676.15" y1="363.7" x2="764.45" y2="130.92" gradientTransform="translate(0 1002) scale(1 -1)" gradientUnits="userSpaceOnUse"><stop offset="0" stop-color="#dfe9a0"/><stop offset=".4" stop-color="#bdd27c"/><stop offset="1" stop-color="#84aa3f"/></linearGradient></defs><path class="cls-3" d="M988.9,496.95c0,9.69-.28,19.32-.85,28.88-.81,14.17-2.23,28.18-4.25,42.03-1.76,12.1-3.95,24.05-6.57,35.85-3.29,14.8-7.23,29.27-11.82,43.42-6.88,21.22,0,0,0,0-20.85,64.61-54.96,124.16-100.14,174.84-19.16,21.53-40.16,41.33-62.77,59.2-136.12,107.06-318.69,134.24-480.09,71.47-11.88-4.61-23.5-9.68-34.87-15.19-11.88-5.73-23.47-11.9-34.78-18.5l-1.26-.74-2.15-1.28h-.17c-90.27-54.15-160.77-135.85-201.11-233.08-1.62-3.85-3.17-7.73-4.66-11.65-20.13-52.5-31.01-108.09-32.17-164.3-.09-3.59-.13-7.21-.13-10.86,0-6.54,.13-13.02,.39-19.46,1.62-42.58,8.84-84.77,21.46-125.47C94.68,152.86,280.44,8.14,500,8.14c269.74-.28,488.62,218.16,488.9,487.9,0,.3,0,.6,0,.91Z"/><path class="cls-6" d="M702.83,52.06C419.14,113.33,164.71,390.2,48.06,683.85c-1.62-3.85-3.17-7.73-4.66-11.65-20.13-52.5-31.01-108.09-32.17-164.3,.17-4.51,.26-8.18,.26-10.86,0-6.54,.13-13.02,.39-19.46,1.55-40.27,8.86-82.62,21.07-125.47C94.68,152.86,280.44,8.14,500,8.14c69.98-.11,139.17,14.87,202.83,43.92Z"/><path class="cls-5" d="M988.9,496.95c0,9.69-.28,19.32-.85,28.88-.81,14.17-2.23,28.18-4.25,42.03-1.76,12.1-3.95,24.05-6.57,35.85-3.32,14.8-7.26,29.27-11.82,43.42-6.85,21.22,0,0,0,0-20.87,64.58-54.97,124.11-100.14,174.77-19.16,21.52-40.17,41.33-62.77,59.2-86.15,68-192.74,104.91-302.49,104.75-62.66,0-138.88-16.3-177.6-33.3-11.67-5.12-23.5-9.69-34.87-15.21-11.88-5.72-23.47-11.89-34.78-18.5l-1.26-.72c-.74-.43-1.44-.83-2.15-1.2h-.17c-15.87-9.5-31.18-19.91-45.86-31.15,121.62-165.98,362.17-424.39,763.24-535.37,14.86,47.43,22.4,96.85,22.35,146.56Z"/><path class="cls-1" d="M942.7,704.74c-13.79,29.59-30.53,57.73-49.95,83.97-47.49,64.05-110.74,115.13-182.98,150.65-58.74,28.9-127.22,40.39-144.74,42.29,.49-1.75,.69-3.57,.61-5.38,0-22.2-1.85-55.5-5.92-99.81-1.65-17.98-3-34.21-4-48.58,31.02-13.73,62.47-26.6,94.35-38.63,2.59-.98,5.18-1.96,7.81-2.92,55.5-20.76,112.18-38.93,170.03-54.52,11.1-2.97,22.2-5.85,33.3-8.62,27.07-6.73,54.06-12.88,81.49-18.44Z"/><path class="cls-4" d="M941.76,980.59c0,2.29-3.26,3.96-9.77,4.94-12.33,1.95-43.42,2.93-93.26,2.94-42.69,0-71.67-.98-86.95-2.94-7.15-.97-11.22-1.79-12.19-2.46-1.97-1-4.25-4.28-6.85-9.84-3.7-9.55-8.63-22.55-14.8-39h0c-2.07-5.59-4.32-11.59-6.73-18-12.69-32.78-32.55-81.12-59.57-145.02-5.73-12.43-22.44-21-38.85-21-7.22,0-11.67,.85-51.95,.85-4.9,0-6.44,8.38-7.4,25.07-1.22,22.38,1.37,55.78,5.44,100.01s5.86,77.26,5.86,99.57c.09,1.72-.05,3.44-.43,5.12-68.63,9.11-138.41,3.56-204.74-16.28,.11-36.02,1.85-87.65,5.09-157.53,3.44-72.77,5.15-127.33,5.12-163.69,0-138.63-3.08-246.77-9.25-324.43l-.5-6.88c-.33-5.55,4.81-9.25,15.37-11.3s60.33-3.92,149.2-5.9c60.24-1.3,108.26-1.95,144.06-1.96,74.22,0,134.78,16.88,181.69,50.63,53.03,38.02,79.55,92.91,79.55,164.65,0,47.85-6.84,86.04-20.52,114.55-13.68,28.51-38.91,56.2-75.7,83.07-7.5,5.25-11.25,10.19-11.25,14.8,.12,0,15.58,31.97,46.38,95.9h0l13.23,27.47c39.8,82.56,59.7,128.11,59.7,136.66Zm-205.15-440.98c0-39.98-13.02-67.67-39.05-83.06-20.2-11.8-51.78-17.7-94.74-17.69-30.93,0-47.38,4.75-49.34,14.25-1.94,11.1-2.9,43.21-2.9,96.33,0,7.55,.15,18.69,.46,33.43,.33,14.8,.5,25.75,.5,32.95,0,1.63,5.2,3.27,15.63,4.92,20.7,3,41.59,4.47,62.51,4.4,71.29,0,106.93-28.51,106.93-85.53Z"/><path class="cls-2" d="M718,934.17c6.17,16.47,11.1,29.46,14.8,39,2.59,5.56,4.87,8.84,6.85,9.84,.96,.67,5.03,1.49,12.19,2.46,15.32,1.95,44.3,2.93,86.95,2.94,49.8,0,80.89-.98,93.26-2.94,6.51-.98,9.77-2.65,9.77-4.94,0-8.51-19.86-54.06-59.57-136.64l-13.23-27.47"/><path class="cls-2" d="M868.95,816.4c-30.83-63.94-46.29-95.9-46.38-95.9,0-4.59,3.75-9.52,11.25-14.8,36.78-26.86,62.01-54.55,75.7-83.07,13.69-28.51,20.53-66.7,20.52-114.55,0-71.77-26.52-126.65-79.55-164.65-46.87-33.76-107.43-50.63-181.69-50.63-35.77,0-83.79,.65-144.06,1.96-88.87,1.97-138.61,3.94-149.2,5.9-10.56,1.98-15.71,5.75-15.37,11.3l.5,6.88c6.17,77.7,9.25,185.84,9.25,324.43,0,36.37-1.71,90.93-5.12,163.69-3.27,69.87-4.98,121.51-5.09,157.53,66.33,19.84,136.11,25.39,204.74,16.28,.37-1.68,.51-3.4,.43-5.12,0-22.31-1.85-55.39-5.88-99.64s-6.66-77.7-5.44-100.01c.91-16.65,2.44-25.07,7.4-25.07,40.27,0,44.73-.85,51.95-.85,16.45,0,33.15,8.57,38.85,21,27.01,63.9,46.87,112.24,59.57,145.02,2.47,6.4,4.71,12.4,6.73,18"/><path class="cls-2" d="M629.68,625.13c-20.92,.07-41.81-1.4-62.51-4.4-10.43-1.65-15.63-3.29-15.63-4.92,0-7.2-.17-18.2-.5-32.95-.33-14.74-.46-25.9-.46-33.43,0-53.03,.97-85.14,2.9-96.33,1.96-9.51,18.41-14.26,49.34-14.25,42.96,0,74.54,5.9,94.74,17.69,26.05,15.42,39.07,43.11,39.05,83.07,0,57.02-35.64,85.53-106.93,85.53Z"/></svg>